M48
; DRILL file {KiCad (5.1.9)-1} date 04/17/22 16:33:28
; FORMAT={-:-/ absolute / inch / decimal}
; #@! TF.CreationDate,2022-04-17T16:33:28-05:00
; #@! TF.GenerationSoftware,Kicad,Pcbnew,(5.1.9)-1
FMAT,2
INCH
T1C0.0157
T2C0.0197
T3C0.0281
T4C0.0295
T5C0.0315
T6C0.0354
T7C0.0394
T8C0.0433
T9C0.0472
T10C0.0512
T11C0.0984
T12C0.1260
T13C0.0866
%
G90
G05
T1
X5.9Y-2.54
T2
X3.561Y-3.9
X3.5887Y-3.8332
X3.5887Y-3.9668
X3.6555Y-3.8055
X3.6555Y-3.9945
X3.7223Y-3.8332
X3.7223Y-3.9668
X3.75Y-3.9
X6.9Y-3.9
X6.9277Y-3.8332
X6.9277Y-3.9668
X6.9945Y-3.8055
X6.9945Y-3.9945
X7.0613Y-3.8332
X7.0613Y-3.9668
X7.089Y-3.9
T3
X3.65Y-1.9
X3.75Y-1.8
X3.85Y-1.9
T4
X4.56Y-2.36
X4.56Y-2.46
X4.61Y-2.41
X4.95Y-3.43
X5.0Y-3.38
X5.05Y-3.43
X5.48Y-3.43
X5.53Y-3.38
X5.58Y-3.43
X6.0Y-3.43
X6.05Y-3.38
X6.1Y-3.43
X6.53Y-3.43
X6.58Y-3.38
X6.63Y-3.43
T5
X4.11Y-2.29
X4.11Y-2.41
X4.41Y-2.29
X4.41Y-2.41
X4.41Y-2.53
X4.41Y-2.83
X4.84Y-2.39
X4.84Y-2.4687
X4.95Y-2.96
X4.95Y-3.26
X5.1Y-2.96
X5.1Y-3.26
X5.25Y-2.95
X5.25Y-3.25
X5.48Y-2.96
X5.48Y-3.26
X5.56Y-1.98
X5.63Y-2.96
X5.63Y-3.26
X5.78Y-2.96
X5.78Y-3.26
X5.86Y-1.98
X6.0Y-2.96
X6.0Y-3.26
X6.15Y-2.96
X6.15Y-3.26
X6.3Y-2.96
X6.3Y-3.26
X6.31Y-1.8022
X6.31Y-1.94
X6.53Y-2.96
X6.53Y-3.26
X6.68Y-2.96
X6.68Y-3.26
X6.72Y-3.69
X6.72Y-3.7687
X6.83Y-2.96
X6.83Y-3.26
T6
X5.19Y-3.43
X5.29Y-3.43
X5.72Y-3.43
X5.82Y-3.43
X6.24Y-3.43
X6.34Y-3.43
X6.77Y-3.43
X6.87Y-3.43
T7
X3.75Y-3.3008
X3.75Y-3.6
X4.2Y-3.23
X4.3Y-3.23
X4.4Y-3.23
X4.5Y-3.23
X4.6Y-3.23
X4.7Y-3.23
X5.5Y-2.1
X5.5Y-2.7
X5.6Y-2.1
X5.6Y-2.7
X5.7Y-2.1
X5.7Y-2.7
X5.8Y-2.1
X5.8Y-2.7
X5.9Y-2.1
X5.9Y-2.7
X5.98Y-1.95
X6.0Y-2.1
X6.0Y-2.7
X6.08Y-1.95
X6.1Y-2.1
X6.1Y-2.7
X6.18Y-1.95
X6.2Y-2.1
X6.2Y-2.7
X6.3Y-2.1
X6.3Y-2.7
X6.4Y-2.1
X6.4Y-2.7
X6.5Y-2.1
X6.5Y-2.7
X6.6Y-2.1
X6.6Y-2.7
X6.7Y-2.1
X6.7Y-2.7
X6.8Y-2.1
X6.8Y-2.7
X6.9Y-2.1
X6.9Y-2.7
T8
X3.604Y-2.2328
X3.604Y-2.41
X3.6041Y-2.6928
X3.6041Y-2.87
X3.8599Y-2.2328
X3.8599Y-2.41
X3.86Y-2.6928
X3.86Y-2.87
T9
X4.3039Y-1.8096
X4.4039Y-1.8096
X4.5039Y-1.8096
X4.6039Y-1.8096
X4.7039Y-1.8096
X4.8039Y-1.8096
X4.9039Y-1.8096
X5.0039Y-1.8096
X5.1039Y-1.8096
X5.2039Y-1.8096
X5.3039Y-1.8096
X5.4039Y-1.8096
X5.5039Y-1.8096
X5.6039Y-1.8096
X5.7039Y-1.8096
X5.8039Y-1.8096
T10
X5.05Y-3.85
X5.25Y-3.85
X5.6Y-3.85
X5.8Y-3.85
X6.0Y-3.85
X6.2Y-3.85
X6.4Y-3.85
T11
X4.0874Y-1.8096
X4.0874Y-3.0301
X7.0401Y-3.0301
X7.0402Y-1.8096
T12
X3.6555Y-3.9
X6.9945Y-3.9
T13
X4.15Y-3.95
X4.75Y-3.95
T0
M30
