%TF.GenerationSoftware,KiCad,Pcbnew,(5.1.9)-1*%
%TF.CreationDate,2022-04-17T16:33:26-05:00*%
%TF.ProjectId,reflow-oven-nano-shield,7265666c-6f77-42d6-9f76-656e2d6e616e,rev?*%
%TF.SameCoordinates,Original*%
%TF.FileFunction,Legend,Bot*%
%TF.FilePolarity,Positive*%
%FSLAX46Y46*%
G04 Gerber Fmt 4.6, Leading zero omitted, Abs format (unit mm)*
G04 Created by KiCad (PCBNEW (5.1.9)-1) date 2022-04-17 16:33:26*
%MOMM*%
%LPD*%
G01*
G04 APERTURE LIST*
%ADD10C,0.150000*%
%ADD11C,0.200000*%
G04 APERTURE END LIST*
D10*
X117649047Y-95210380D02*
X117649047Y-95924666D01*
X117696666Y-96067523D01*
X117791904Y-96162761D01*
X117934761Y-96210380D01*
X118030000Y-96210380D01*
X116696666Y-96210380D02*
X117172857Y-96210380D01*
X117172857Y-95210380D01*
X115791904Y-96115142D02*
X115839523Y-96162761D01*
X115982380Y-96210380D01*
X116077619Y-96210380D01*
X116220476Y-96162761D01*
X116315714Y-96067523D01*
X116363333Y-95972285D01*
X116410952Y-95781809D01*
X116410952Y-95638952D01*
X116363333Y-95448476D01*
X116315714Y-95353238D01*
X116220476Y-95258000D01*
X116077619Y-95210380D01*
X115982380Y-95210380D01*
X115839523Y-95258000D01*
X115791904Y-95305619D01*
X115077619Y-95210380D02*
X115077619Y-95924666D01*
X115125238Y-96067523D01*
X115220476Y-96162761D01*
X115363333Y-96210380D01*
X115458571Y-96210380D01*
X114125238Y-96210380D02*
X114601428Y-96210380D01*
X114601428Y-95210380D01*
X113220476Y-96115142D02*
X113268095Y-96162761D01*
X113410952Y-96210380D01*
X113506190Y-96210380D01*
X113649047Y-96162761D01*
X113744285Y-96067523D01*
X113791904Y-95972285D01*
X113839523Y-95781809D01*
X113839523Y-95638952D01*
X113791904Y-95448476D01*
X113744285Y-95353238D01*
X113649047Y-95258000D01*
X113506190Y-95210380D01*
X113410952Y-95210380D01*
X113268095Y-95258000D01*
X113220476Y-95305619D01*
X112506190Y-95210380D02*
X112506190Y-95924666D01*
X112553809Y-96067523D01*
X112649047Y-96162761D01*
X112791904Y-96210380D01*
X112887142Y-96210380D01*
X111553809Y-96210380D02*
X112030000Y-96210380D01*
X112030000Y-95210380D01*
X110649047Y-96115142D02*
X110696666Y-96162761D01*
X110839523Y-96210380D01*
X110934761Y-96210380D01*
X111077619Y-96162761D01*
X111172857Y-96067523D01*
X111220476Y-95972285D01*
X111268095Y-95781809D01*
X111268095Y-95638952D01*
X111220476Y-95448476D01*
X111172857Y-95353238D01*
X111077619Y-95258000D01*
X110934761Y-95210380D01*
X110839523Y-95210380D01*
X110696666Y-95258000D01*
X110649047Y-95305619D01*
X109934761Y-95210380D02*
X109934761Y-95924666D01*
X109982380Y-96067523D01*
X110077619Y-96162761D01*
X110220476Y-96210380D01*
X110315714Y-96210380D01*
X108982380Y-96210380D02*
X109458571Y-96210380D01*
X109458571Y-95210380D01*
X108077619Y-96115142D02*
X108125238Y-96162761D01*
X108268095Y-96210380D01*
X108363333Y-96210380D01*
X108506190Y-96162761D01*
X108601428Y-96067523D01*
X108649047Y-95972285D01*
X108696666Y-95781809D01*
X108696666Y-95638952D01*
X108649047Y-95448476D01*
X108601428Y-95353238D01*
X108506190Y-95258000D01*
X108363333Y-95210380D01*
X108268095Y-95210380D01*
X108125238Y-95258000D01*
X108077619Y-95305619D01*
D11*
X166046857Y-57121476D02*
X166463523Y-56526238D01*
X166761142Y-57121476D02*
X166761142Y-55871476D01*
X166284952Y-55871476D01*
X166165904Y-55931000D01*
X166106380Y-55990523D01*
X166046857Y-56109571D01*
X166046857Y-56288142D01*
X166106380Y-56407190D01*
X166165904Y-56466714D01*
X166284952Y-56526238D01*
X166761142Y-56526238D01*
X165034952Y-57061952D02*
X165154000Y-57121476D01*
X165392095Y-57121476D01*
X165511142Y-57061952D01*
X165570666Y-56942904D01*
X165570666Y-56466714D01*
X165511142Y-56347666D01*
X165392095Y-56288142D01*
X165154000Y-56288142D01*
X165034952Y-56347666D01*
X164975428Y-56466714D01*
X164975428Y-56585761D01*
X165570666Y-56704809D01*
X164618285Y-56288142D02*
X164142095Y-56288142D01*
X164439714Y-57121476D02*
X164439714Y-56050047D01*
X164380190Y-55931000D01*
X164261142Y-55871476D01*
X164142095Y-55871476D01*
X163546857Y-57121476D02*
X163665904Y-57061952D01*
X163725428Y-56942904D01*
X163725428Y-55871476D01*
X162892095Y-57121476D02*
X163011142Y-57061952D01*
X163070666Y-57002428D01*
X163130190Y-56883380D01*
X163130190Y-56526238D01*
X163070666Y-56407190D01*
X163011142Y-56347666D01*
X162892095Y-56288142D01*
X162713523Y-56288142D01*
X162594476Y-56347666D01*
X162534952Y-56407190D01*
X162475428Y-56526238D01*
X162475428Y-56883380D01*
X162534952Y-57002428D01*
X162594476Y-57061952D01*
X162713523Y-57121476D01*
X162892095Y-57121476D01*
X162058761Y-56288142D02*
X161820666Y-57121476D01*
X161582571Y-56526238D01*
X161344476Y-57121476D01*
X161106380Y-56288142D01*
X159439714Y-55871476D02*
X159201619Y-55871476D01*
X159082571Y-55931000D01*
X158963523Y-56050047D01*
X158904000Y-56288142D01*
X158904000Y-56704809D01*
X158963523Y-56942904D01*
X159082571Y-57061952D01*
X159201619Y-57121476D01*
X159439714Y-57121476D01*
X159558761Y-57061952D01*
X159677809Y-56942904D01*
X159737333Y-56704809D01*
X159737333Y-56288142D01*
X159677809Y-56050047D01*
X159558761Y-55931000D01*
X159439714Y-55871476D01*
X158487333Y-56288142D02*
X158189714Y-57121476D01*
X157892095Y-56288142D01*
X156939714Y-57061952D02*
X157058761Y-57121476D01*
X157296857Y-57121476D01*
X157415904Y-57061952D01*
X157475428Y-56942904D01*
X157475428Y-56466714D01*
X157415904Y-56347666D01*
X157296857Y-56288142D01*
X157058761Y-56288142D01*
X156939714Y-56347666D01*
X156880190Y-56466714D01*
X156880190Y-56585761D01*
X157475428Y-56704809D01*
X156344476Y-56288142D02*
X156344476Y-57121476D01*
X156344476Y-56407190D02*
X156284952Y-56347666D01*
X156165904Y-56288142D01*
X155987333Y-56288142D01*
X155868285Y-56347666D01*
X155808761Y-56466714D01*
X155808761Y-57121476D01*
X154261142Y-57121476D02*
X154261142Y-55871476D01*
X153546857Y-57121476D01*
X153546857Y-55871476D01*
X152415904Y-57121476D02*
X152415904Y-56466714D01*
X152475428Y-56347666D01*
X152594476Y-56288142D01*
X152832571Y-56288142D01*
X152951619Y-56347666D01*
X152415904Y-57061952D02*
X152534952Y-57121476D01*
X152832571Y-57121476D01*
X152951619Y-57061952D01*
X153011142Y-56942904D01*
X153011142Y-56823857D01*
X152951619Y-56704809D01*
X152832571Y-56645285D01*
X152534952Y-56645285D01*
X152415904Y-56585761D01*
X151820666Y-56288142D02*
X151820666Y-57121476D01*
X151820666Y-56407190D02*
X151761142Y-56347666D01*
X151642095Y-56288142D01*
X151463523Y-56288142D01*
X151344476Y-56347666D01*
X151284952Y-56466714D01*
X151284952Y-57121476D01*
X150511142Y-57121476D02*
X150630190Y-57061952D01*
X150689714Y-57002428D01*
X150749238Y-56883380D01*
X150749238Y-56526238D01*
X150689714Y-56407190D01*
X150630190Y-56347666D01*
X150511142Y-56288142D01*
X150332571Y-56288142D01*
X150213523Y-56347666D01*
X150154000Y-56407190D01*
X150094476Y-56526238D01*
X150094476Y-56883380D01*
X150154000Y-57002428D01*
X150213523Y-57061952D01*
X150332571Y-57121476D01*
X150511142Y-57121476D01*
X148665904Y-57061952D02*
X148487333Y-57121476D01*
X148189714Y-57121476D01*
X148070666Y-57061952D01*
X148011142Y-57002428D01*
X147951619Y-56883380D01*
X147951619Y-56764333D01*
X148011142Y-56645285D01*
X148070666Y-56585761D01*
X148189714Y-56526238D01*
X148427809Y-56466714D01*
X148546857Y-56407190D01*
X148606380Y-56347666D01*
X148665904Y-56228619D01*
X148665904Y-56109571D01*
X148606380Y-55990523D01*
X148546857Y-55931000D01*
X148427809Y-55871476D01*
X148130190Y-55871476D01*
X147951619Y-55931000D01*
X147415904Y-57121476D02*
X147415904Y-55871476D01*
X146880190Y-57121476D02*
X146880190Y-56466714D01*
X146939714Y-56347666D01*
X147058761Y-56288142D01*
X147237333Y-56288142D01*
X147356380Y-56347666D01*
X147415904Y-56407190D01*
X146284952Y-57121476D02*
X146284952Y-56288142D01*
X146284952Y-55871476D02*
X146344476Y-55931000D01*
X146284952Y-55990523D01*
X146225428Y-55931000D01*
X146284952Y-55871476D01*
X146284952Y-55990523D01*
X145213523Y-57061952D02*
X145332571Y-57121476D01*
X145570666Y-57121476D01*
X145689714Y-57061952D01*
X145749238Y-56942904D01*
X145749238Y-56466714D01*
X145689714Y-56347666D01*
X145570666Y-56288142D01*
X145332571Y-56288142D01*
X145213523Y-56347666D01*
X145154000Y-56466714D01*
X145154000Y-56585761D01*
X145749238Y-56704809D01*
X144439714Y-57121476D02*
X144558761Y-57061952D01*
X144618285Y-56942904D01*
X144618285Y-55871476D01*
X143427809Y-57121476D02*
X143427809Y-55871476D01*
X143427809Y-57061952D02*
X143546857Y-57121476D01*
X143784952Y-57121476D01*
X143904000Y-57061952D01*
X143963523Y-57002428D01*
X144023047Y-56883380D01*
X144023047Y-56526238D01*
X143963523Y-56407190D01*
X143904000Y-56347666D01*
X143784952Y-56288142D01*
X143546857Y-56288142D01*
X143427809Y-56347666D01*
X141999238Y-56288142D02*
X141701619Y-57121476D01*
X141404000Y-56288142D01*
X140273047Y-57121476D02*
X140987333Y-57121476D01*
X140630190Y-57121476D02*
X140630190Y-55871476D01*
X140749238Y-56050047D01*
X140868285Y-56169095D01*
X140987333Y-56228619D01*
X139737333Y-57002428D02*
X139677809Y-57061952D01*
X139737333Y-57121476D01*
X139796857Y-57061952D01*
X139737333Y-57002428D01*
X139737333Y-57121476D01*
X138904000Y-55871476D02*
X138784952Y-55871476D01*
X138665904Y-55931000D01*
X138606380Y-55990523D01*
X138546857Y-56109571D01*
X138487333Y-56347666D01*
X138487333Y-56645285D01*
X138546857Y-56883380D01*
X138606380Y-57002428D01*
X138665904Y-57061952D01*
X138784952Y-57121476D01*
X138904000Y-57121476D01*
X139023047Y-57061952D01*
X139082571Y-57002428D01*
X139142095Y-56883380D01*
X139201619Y-56645285D01*
X139201619Y-56347666D01*
X139142095Y-56109571D01*
X139082571Y-55990523D01*
X139023047Y-55931000D01*
X138904000Y-55871476D01*
X162981380Y-59196476D02*
X162981380Y-57946476D01*
X162505190Y-57946476D01*
X162386142Y-58006000D01*
X162326619Y-58065523D01*
X162267095Y-58184571D01*
X162267095Y-58363142D01*
X162326619Y-58482190D01*
X162386142Y-58541714D01*
X162505190Y-58601238D01*
X162981380Y-58601238D01*
X161017095Y-59077428D02*
X161076619Y-59136952D01*
X161255190Y-59196476D01*
X161374238Y-59196476D01*
X161552809Y-59136952D01*
X161671857Y-59017904D01*
X161731380Y-58898857D01*
X161790904Y-58660761D01*
X161790904Y-58482190D01*
X161731380Y-58244095D01*
X161671857Y-58125047D01*
X161552809Y-58006000D01*
X161374238Y-57946476D01*
X161255190Y-57946476D01*
X161076619Y-58006000D01*
X161017095Y-58065523D01*
X160064714Y-58541714D02*
X159886142Y-58601238D01*
X159826619Y-58660761D01*
X159767095Y-58779809D01*
X159767095Y-58958380D01*
X159826619Y-59077428D01*
X159886142Y-59136952D01*
X160005190Y-59196476D01*
X160481380Y-59196476D01*
X160481380Y-57946476D01*
X160064714Y-57946476D01*
X159945666Y-58006000D01*
X159886142Y-58065523D01*
X159826619Y-58184571D01*
X159826619Y-58303619D01*
X159886142Y-58422666D01*
X159945666Y-58482190D01*
X160064714Y-58541714D01*
X160481380Y-58541714D01*
X158279000Y-59196476D02*
X158279000Y-57946476D01*
X158279000Y-58422666D02*
X158159952Y-58363142D01*
X157921857Y-58363142D01*
X157802809Y-58422666D01*
X157743285Y-58482190D01*
X157683761Y-58601238D01*
X157683761Y-58958380D01*
X157743285Y-59077428D01*
X157802809Y-59136952D01*
X157921857Y-59196476D01*
X158159952Y-59196476D01*
X158279000Y-59136952D01*
X157267095Y-58363142D02*
X156969476Y-59196476D01*
X156671857Y-58363142D02*
X156969476Y-59196476D01*
X157088523Y-59494095D01*
X157148047Y-59553619D01*
X157267095Y-59613142D01*
X154529000Y-59077428D02*
X154588523Y-59136952D01*
X154767095Y-59196476D01*
X154886142Y-59196476D01*
X155064714Y-59136952D01*
X155183761Y-59017904D01*
X155243285Y-58898857D01*
X155302809Y-58660761D01*
X155302809Y-58482190D01*
X155243285Y-58244095D01*
X155183761Y-58125047D01*
X155064714Y-58006000D01*
X154886142Y-57946476D01*
X154767095Y-57946476D01*
X154588523Y-58006000D01*
X154529000Y-58065523D01*
X153993285Y-59196476D02*
X153993285Y-57946476D01*
X153457571Y-59196476D02*
X153457571Y-58541714D01*
X153517095Y-58422666D01*
X153636142Y-58363142D01*
X153814714Y-58363142D01*
X153933761Y-58422666D01*
X153993285Y-58482190D01*
X152862333Y-59196476D02*
X152862333Y-58363142D01*
X152862333Y-58601238D02*
X152802809Y-58482190D01*
X152743285Y-58422666D01*
X152624238Y-58363142D01*
X152505190Y-58363142D01*
X152088523Y-59196476D02*
X152088523Y-58363142D01*
X152088523Y-57946476D02*
X152148047Y-58006000D01*
X152088523Y-58065523D01*
X152029000Y-58006000D01*
X152088523Y-57946476D01*
X152088523Y-58065523D01*
X151552809Y-59136952D02*
X151433761Y-59196476D01*
X151195666Y-59196476D01*
X151076619Y-59136952D01*
X151017095Y-59017904D01*
X151017095Y-58958380D01*
X151076619Y-58839333D01*
X151195666Y-58779809D01*
X151374238Y-58779809D01*
X151493285Y-58720285D01*
X151552809Y-58601238D01*
X151552809Y-58541714D01*
X151493285Y-58422666D01*
X151374238Y-58363142D01*
X151195666Y-58363142D01*
X151076619Y-58422666D01*
X149707571Y-57946476D02*
X148993285Y-57946476D01*
X149350428Y-59196476D02*
X149350428Y-57946476D01*
X148100428Y-59136952D02*
X148219476Y-59196476D01*
X148457571Y-59196476D01*
X148576619Y-59136952D01*
X148636142Y-59017904D01*
X148636142Y-58541714D01*
X148576619Y-58422666D01*
X148457571Y-58363142D01*
X148219476Y-58363142D01*
X148100428Y-58422666D01*
X148040904Y-58541714D01*
X148040904Y-58660761D01*
X148636142Y-58779809D01*
X147505190Y-59196476D02*
X147505190Y-58363142D01*
X147505190Y-58601238D02*
X147445666Y-58482190D01*
X147386142Y-58422666D01*
X147267095Y-58363142D01*
X147148047Y-58363142D01*
X146790904Y-59136952D02*
X146671857Y-59196476D01*
X146433761Y-59196476D01*
X146314714Y-59136952D01*
X146255190Y-59017904D01*
X146255190Y-58958380D01*
X146314714Y-58839333D01*
X146433761Y-58779809D01*
X146612333Y-58779809D01*
X146731380Y-58720285D01*
X146790904Y-58601238D01*
X146790904Y-58541714D01*
X146731380Y-58422666D01*
X146612333Y-58363142D01*
X146433761Y-58363142D01*
X146314714Y-58422666D01*
X145898047Y-58363142D02*
X145421857Y-58363142D01*
X145719476Y-57946476D02*
X145719476Y-59017904D01*
X145659952Y-59136952D01*
X145540904Y-59196476D01*
X145421857Y-59196476D01*
X144529000Y-59136952D02*
X144648047Y-59196476D01*
X144886142Y-59196476D01*
X145005190Y-59136952D01*
X145064714Y-59017904D01*
X145064714Y-58541714D01*
X145005190Y-58422666D01*
X144886142Y-58363142D01*
X144648047Y-58363142D01*
X144529000Y-58422666D01*
X144469476Y-58541714D01*
X144469476Y-58660761D01*
X145064714Y-58779809D01*
X143457571Y-59136952D02*
X143576619Y-59196476D01*
X143814714Y-59196476D01*
X143933761Y-59136952D01*
X143993285Y-59017904D01*
X143993285Y-58541714D01*
X143933761Y-58422666D01*
X143814714Y-58363142D01*
X143576619Y-58363142D01*
X143457571Y-58422666D01*
X143398047Y-58541714D01*
X143398047Y-58660761D01*
X143993285Y-58779809D01*
X142326619Y-58363142D02*
X142326619Y-59375047D01*
X142386142Y-59494095D01*
X142445666Y-59553619D01*
X142564714Y-59613142D01*
X142743285Y-59613142D01*
X142862333Y-59553619D01*
X142326619Y-59136952D02*
X142445666Y-59196476D01*
X142683761Y-59196476D01*
X142802809Y-59136952D01*
X142862333Y-59077428D01*
X142921857Y-58958380D01*
X142921857Y-58601238D01*
X142862333Y-58482190D01*
X142802809Y-58422666D01*
X142683761Y-58363142D01*
X142445666Y-58363142D01*
X142326619Y-58422666D01*
X175808761Y-60438142D02*
X175808761Y-61450047D01*
X175868285Y-61569095D01*
X175927809Y-61628619D01*
X176046857Y-61688142D01*
X176225428Y-61688142D01*
X176344476Y-61628619D01*
X175808761Y-61211952D02*
X175927809Y-61271476D01*
X176165904Y-61271476D01*
X176284952Y-61211952D01*
X176344476Y-61152428D01*
X176404000Y-61033380D01*
X176404000Y-60676238D01*
X176344476Y-60557190D01*
X176284952Y-60497666D01*
X176165904Y-60438142D01*
X175927809Y-60438142D01*
X175808761Y-60497666D01*
X175213523Y-61271476D02*
X175213523Y-60438142D01*
X175213523Y-60021476D02*
X175273047Y-60081000D01*
X175213523Y-60140523D01*
X175154000Y-60081000D01*
X175213523Y-60021476D01*
X175213523Y-60140523D01*
X174796857Y-60438142D02*
X174320666Y-60438142D01*
X174618285Y-60021476D02*
X174618285Y-61092904D01*
X174558761Y-61211952D01*
X174439714Y-61271476D01*
X174320666Y-61271476D01*
X173904000Y-61271476D02*
X173904000Y-60021476D01*
X173368285Y-61271476D02*
X173368285Y-60616714D01*
X173427809Y-60497666D01*
X173546857Y-60438142D01*
X173725428Y-60438142D01*
X173844476Y-60497666D01*
X173904000Y-60557190D01*
X172237333Y-60438142D02*
X172237333Y-61271476D01*
X172773047Y-60438142D02*
X172773047Y-61092904D01*
X172713523Y-61211952D01*
X172594476Y-61271476D01*
X172415904Y-61271476D01*
X172296857Y-61211952D01*
X172237333Y-61152428D01*
X171642095Y-61271476D02*
X171642095Y-60021476D01*
X171642095Y-60497666D02*
X171523047Y-60438142D01*
X171284952Y-60438142D01*
X171165904Y-60497666D01*
X171106380Y-60557190D01*
X171046857Y-60676238D01*
X171046857Y-61033380D01*
X171106380Y-61152428D01*
X171165904Y-61211952D01*
X171284952Y-61271476D01*
X171523047Y-61271476D01*
X171642095Y-61211952D01*
X170511142Y-61152428D02*
X170451619Y-61211952D01*
X170511142Y-61271476D01*
X170570666Y-61211952D01*
X170511142Y-61152428D01*
X170511142Y-61271476D01*
X169380190Y-61211952D02*
X169499238Y-61271476D01*
X169737333Y-61271476D01*
X169856380Y-61211952D01*
X169915904Y-61152428D01*
X169975428Y-61033380D01*
X169975428Y-60676238D01*
X169915904Y-60557190D01*
X169856380Y-60497666D01*
X169737333Y-60438142D01*
X169499238Y-60438142D01*
X169380190Y-60497666D01*
X168665904Y-61271476D02*
X168784952Y-61211952D01*
X168844476Y-61152428D01*
X168904000Y-61033380D01*
X168904000Y-60676238D01*
X168844476Y-60557190D01*
X168784952Y-60497666D01*
X168665904Y-60438142D01*
X168487333Y-60438142D01*
X168368285Y-60497666D01*
X168308761Y-60557190D01*
X168249238Y-60676238D01*
X168249238Y-61033380D01*
X168308761Y-61152428D01*
X168368285Y-61211952D01*
X168487333Y-61271476D01*
X168665904Y-61271476D01*
X167713523Y-61271476D02*
X167713523Y-60438142D01*
X167713523Y-60557190D02*
X167654000Y-60497666D01*
X167534952Y-60438142D01*
X167356380Y-60438142D01*
X167237333Y-60497666D01*
X167177809Y-60616714D01*
X167177809Y-61271476D01*
X167177809Y-60616714D02*
X167118285Y-60497666D01*
X166999238Y-60438142D01*
X166820666Y-60438142D01*
X166701619Y-60497666D01*
X166642095Y-60616714D01*
X166642095Y-61271476D01*
X165154000Y-59961952D02*
X166225428Y-61569095D01*
X164201619Y-61271476D02*
X164201619Y-60021476D01*
X164201619Y-61211952D02*
X164320666Y-61271476D01*
X164558761Y-61271476D01*
X164677809Y-61211952D01*
X164737333Y-61152428D01*
X164796857Y-61033380D01*
X164796857Y-60676238D01*
X164737333Y-60557190D01*
X164677809Y-60497666D01*
X164558761Y-60438142D01*
X164320666Y-60438142D01*
X164201619Y-60497666D01*
X163606380Y-60438142D02*
X163606380Y-61509571D01*
X163665904Y-61628619D01*
X163784952Y-61688142D01*
X163844476Y-61688142D01*
X163606380Y-60021476D02*
X163665904Y-60081000D01*
X163606380Y-60140523D01*
X163546857Y-60081000D01*
X163606380Y-60021476D01*
X163606380Y-60140523D01*
X163189714Y-60438142D02*
X162713523Y-60438142D01*
X163011142Y-60021476D02*
X163011142Y-61092904D01*
X162951619Y-61211952D01*
X162832571Y-61271476D01*
X162713523Y-61271476D01*
X161820666Y-61211952D02*
X161939714Y-61271476D01*
X162177809Y-61271476D01*
X162296857Y-61211952D01*
X162356380Y-61092904D01*
X162356380Y-60616714D01*
X162296857Y-60497666D01*
X162177809Y-60438142D01*
X161939714Y-60438142D01*
X161820666Y-60497666D01*
X161761142Y-60616714D01*
X161761142Y-60735761D01*
X162356380Y-60854809D01*
X161225428Y-61271476D02*
X161225428Y-60438142D01*
X161225428Y-60676238D02*
X161165904Y-60557190D01*
X161106380Y-60497666D01*
X160987333Y-60438142D01*
X160868285Y-60438142D01*
X160511142Y-61211952D02*
X160392095Y-61271476D01*
X160154000Y-61271476D01*
X160034952Y-61211952D01*
X159975428Y-61092904D01*
X159975428Y-61033380D01*
X160034952Y-60914333D01*
X160154000Y-60854809D01*
X160332571Y-60854809D01*
X160451619Y-60795285D01*
X160511142Y-60676238D01*
X160511142Y-60616714D01*
X160451619Y-60497666D01*
X160332571Y-60438142D01*
X160154000Y-60438142D01*
X160034952Y-60497666D01*
X159618285Y-60438142D02*
X159142095Y-60438142D01*
X159439714Y-60021476D02*
X159439714Y-61092904D01*
X159380190Y-61211952D01*
X159261142Y-61271476D01*
X159142095Y-61271476D01*
X158249238Y-61211952D02*
X158368285Y-61271476D01*
X158606380Y-61271476D01*
X158725428Y-61211952D01*
X158784952Y-61092904D01*
X158784952Y-60616714D01*
X158725428Y-60497666D01*
X158606380Y-60438142D01*
X158368285Y-60438142D01*
X158249238Y-60497666D01*
X158189714Y-60616714D01*
X158189714Y-60735761D01*
X158784952Y-60854809D01*
X157177809Y-61211952D02*
X157296857Y-61271476D01*
X157534952Y-61271476D01*
X157654000Y-61211952D01*
X157713523Y-61092904D01*
X157713523Y-60616714D01*
X157654000Y-60497666D01*
X157534952Y-60438142D01*
X157296857Y-60438142D01*
X157177809Y-60497666D01*
X157118285Y-60616714D01*
X157118285Y-60735761D01*
X157713523Y-60854809D01*
X156046857Y-60438142D02*
X156046857Y-61450047D01*
X156106380Y-61569095D01*
X156165904Y-61628619D01*
X156284952Y-61688142D01*
X156463523Y-61688142D01*
X156582571Y-61628619D01*
X156046857Y-61211952D02*
X156165904Y-61271476D01*
X156404000Y-61271476D01*
X156523047Y-61211952D01*
X156582571Y-61152428D01*
X156642095Y-61033380D01*
X156642095Y-60676238D01*
X156582571Y-60557190D01*
X156523047Y-60497666D01*
X156404000Y-60438142D01*
X156165904Y-60438142D01*
X156046857Y-60497666D01*
X154915904Y-61211952D02*
X155034952Y-61271476D01*
X155273047Y-61271476D01*
X155392095Y-61211952D01*
X155451619Y-61152428D01*
X155511142Y-61033380D01*
X155511142Y-60676238D01*
X155451619Y-60557190D01*
X155392095Y-60497666D01*
X155273047Y-60438142D01*
X155034952Y-60438142D01*
X154915904Y-60497666D01*
X153487333Y-59961952D02*
X154558761Y-61569095D01*
X153070666Y-61271476D02*
X153070666Y-60438142D01*
X153070666Y-60676238D02*
X153011142Y-60557190D01*
X152951619Y-60497666D01*
X152832571Y-60438142D01*
X152713523Y-60438142D01*
X151820666Y-61211952D02*
X151939714Y-61271476D01*
X152177809Y-61271476D01*
X152296857Y-61211952D01*
X152356380Y-61092904D01*
X152356380Y-60616714D01*
X152296857Y-60497666D01*
X152177809Y-60438142D01*
X151939714Y-60438142D01*
X151820666Y-60497666D01*
X151761142Y-60616714D01*
X151761142Y-60735761D01*
X152356380Y-60854809D01*
X151404000Y-60438142D02*
X150927809Y-60438142D01*
X151225428Y-61271476D02*
X151225428Y-60200047D01*
X151165904Y-60081000D01*
X151046857Y-60021476D01*
X150927809Y-60021476D01*
X150332571Y-61271476D02*
X150451619Y-61211952D01*
X150511142Y-61092904D01*
X150511142Y-60021476D01*
X149677809Y-61271476D02*
X149796857Y-61211952D01*
X149856380Y-61152428D01*
X149915904Y-61033380D01*
X149915904Y-60676238D01*
X149856380Y-60557190D01*
X149796857Y-60497666D01*
X149677809Y-60438142D01*
X149499238Y-60438142D01*
X149380190Y-60497666D01*
X149320666Y-60557190D01*
X149261142Y-60676238D01*
X149261142Y-61033380D01*
X149320666Y-61152428D01*
X149380190Y-61211952D01*
X149499238Y-61271476D01*
X149677809Y-61271476D01*
X148844476Y-60438142D02*
X148606380Y-61271476D01*
X148368285Y-60676238D01*
X148130190Y-61271476D01*
X147892095Y-60438142D01*
X147415904Y-60795285D02*
X146463523Y-60795285D01*
X145689714Y-61271476D02*
X145808761Y-61211952D01*
X145868285Y-61152428D01*
X145927809Y-61033380D01*
X145927809Y-60676238D01*
X145868285Y-60557190D01*
X145808761Y-60497666D01*
X145689714Y-60438142D01*
X145511142Y-60438142D01*
X145392095Y-60497666D01*
X145332571Y-60557190D01*
X145273047Y-60676238D01*
X145273047Y-61033380D01*
X145332571Y-61152428D01*
X145392095Y-61211952D01*
X145511142Y-61271476D01*
X145689714Y-61271476D01*
X144856380Y-60438142D02*
X144558761Y-61271476D01*
X144261142Y-60438142D01*
X143308761Y-61211952D02*
X143427809Y-61271476D01*
X143665904Y-61271476D01*
X143784952Y-61211952D01*
X143844476Y-61092904D01*
X143844476Y-60616714D01*
X143784952Y-60497666D01*
X143665904Y-60438142D01*
X143427809Y-60438142D01*
X143308761Y-60497666D01*
X143249238Y-60616714D01*
X143249238Y-60735761D01*
X143844476Y-60854809D01*
X142713523Y-60438142D02*
X142713523Y-61271476D01*
X142713523Y-60557190D02*
X142654000Y-60497666D01*
X142534952Y-60438142D01*
X142356380Y-60438142D01*
X142237333Y-60497666D01*
X142177809Y-60616714D01*
X142177809Y-61271476D01*
X141582571Y-60795285D02*
X140630190Y-60795285D01*
X140034952Y-60438142D02*
X140034952Y-61271476D01*
X140034952Y-60557190D02*
X139975428Y-60497666D01*
X139856380Y-60438142D01*
X139677809Y-60438142D01*
X139558761Y-60497666D01*
X139499238Y-60616714D01*
X139499238Y-61271476D01*
X138368285Y-61271476D02*
X138368285Y-60616714D01*
X138427809Y-60497666D01*
X138546857Y-60438142D01*
X138784952Y-60438142D01*
X138904000Y-60497666D01*
X138368285Y-61211952D02*
X138487333Y-61271476D01*
X138784952Y-61271476D01*
X138904000Y-61211952D01*
X138963523Y-61092904D01*
X138963523Y-60973857D01*
X138904000Y-60854809D01*
X138784952Y-60795285D01*
X138487333Y-60795285D01*
X138368285Y-60735761D01*
X137773047Y-60438142D02*
X137773047Y-61271476D01*
X137773047Y-60557190D02*
X137713523Y-60497666D01*
X137594476Y-60438142D01*
X137415904Y-60438142D01*
X137296857Y-60497666D01*
X137237333Y-60616714D01*
X137237333Y-61271476D01*
X136463523Y-61271476D02*
X136582571Y-61211952D01*
X136642095Y-61152428D01*
X136701619Y-61033380D01*
X136701619Y-60676238D01*
X136642095Y-60557190D01*
X136582571Y-60497666D01*
X136463523Y-60438142D01*
X136284952Y-60438142D01*
X136165904Y-60497666D01*
X136106380Y-60557190D01*
X136046857Y-60676238D01*
X136046857Y-61033380D01*
X136106380Y-61152428D01*
X136165904Y-61211952D01*
X136284952Y-61271476D01*
X136463523Y-61271476D01*
X135511142Y-60795285D02*
X134558761Y-60795285D01*
X134023047Y-61211952D02*
X133904000Y-61271476D01*
X133665904Y-61271476D01*
X133546857Y-61211952D01*
X133487333Y-61092904D01*
X133487333Y-61033380D01*
X133546857Y-60914333D01*
X133665904Y-60854809D01*
X133844476Y-60854809D01*
X133963523Y-60795285D01*
X134023047Y-60676238D01*
X134023047Y-60616714D01*
X133963523Y-60497666D01*
X133844476Y-60438142D01*
X133665904Y-60438142D01*
X133546857Y-60497666D01*
X132951619Y-61271476D02*
X132951619Y-60021476D01*
X132415904Y-61271476D02*
X132415904Y-60616714D01*
X132475428Y-60497666D01*
X132594476Y-60438142D01*
X132773047Y-60438142D01*
X132892095Y-60497666D01*
X132951619Y-60557190D01*
X131820666Y-61271476D02*
X131820666Y-60438142D01*
X131820666Y-60021476D02*
X131880190Y-60081000D01*
X131820666Y-60140523D01*
X131761142Y-60081000D01*
X131820666Y-60021476D01*
X131820666Y-60140523D01*
X130749238Y-61211952D02*
X130868285Y-61271476D01*
X131106380Y-61271476D01*
X131225428Y-61211952D01*
X131284952Y-61092904D01*
X131284952Y-60616714D01*
X131225428Y-60497666D01*
X131106380Y-60438142D01*
X130868285Y-60438142D01*
X130749238Y-60497666D01*
X130689714Y-60616714D01*
X130689714Y-60735761D01*
X131284952Y-60854809D01*
X129975428Y-61271476D02*
X130094476Y-61211952D01*
X130154000Y-61092904D01*
X130154000Y-60021476D01*
X128963523Y-61271476D02*
X128963523Y-60021476D01*
X128963523Y-61211952D02*
X129082571Y-61271476D01*
X129320666Y-61271476D01*
X129439714Y-61211952D01*
X129499238Y-61152428D01*
X129558761Y-61033380D01*
X129558761Y-60676238D01*
X129499238Y-60557190D01*
X129439714Y-60497666D01*
X129320666Y-60438142D01*
X129082571Y-60438142D01*
X128963523Y-60497666D01*
X169767095Y-63227428D02*
X169826619Y-63286952D01*
X170005190Y-63346476D01*
X170124238Y-63346476D01*
X170302809Y-63286952D01*
X170421857Y-63167904D01*
X170481380Y-63048857D01*
X170540904Y-62810761D01*
X170540904Y-62632190D01*
X170481380Y-62394095D01*
X170421857Y-62275047D01*
X170302809Y-62156000D01*
X170124238Y-62096476D01*
X170005190Y-62096476D01*
X169826619Y-62156000D01*
X169767095Y-62215523D01*
X169052809Y-63346476D02*
X169171857Y-63286952D01*
X169231380Y-63227428D01*
X169290904Y-63108380D01*
X169290904Y-62751238D01*
X169231380Y-62632190D01*
X169171857Y-62572666D01*
X169052809Y-62513142D01*
X168874238Y-62513142D01*
X168755190Y-62572666D01*
X168695666Y-62632190D01*
X168636142Y-62751238D01*
X168636142Y-63108380D01*
X168695666Y-63227428D01*
X168755190Y-63286952D01*
X168874238Y-63346476D01*
X169052809Y-63346476D01*
X168100428Y-62513142D02*
X168100428Y-63346476D01*
X168100428Y-62632190D02*
X168040904Y-62572666D01*
X167921857Y-62513142D01*
X167743285Y-62513142D01*
X167624238Y-62572666D01*
X167564714Y-62691714D01*
X167564714Y-63346476D01*
X167148047Y-62513142D02*
X166671857Y-62513142D01*
X166969476Y-62096476D02*
X166969476Y-63167904D01*
X166909952Y-63286952D01*
X166790904Y-63346476D01*
X166671857Y-63346476D01*
X166255190Y-63346476D02*
X166255190Y-62513142D01*
X166255190Y-62751238D02*
X166195666Y-62632190D01*
X166136142Y-62572666D01*
X166017095Y-62513142D01*
X165898047Y-62513142D01*
X165302809Y-63346476D02*
X165421857Y-63286952D01*
X165481380Y-63227428D01*
X165540904Y-63108380D01*
X165540904Y-62751238D01*
X165481380Y-62632190D01*
X165421857Y-62572666D01*
X165302809Y-62513142D01*
X165124238Y-62513142D01*
X165005190Y-62572666D01*
X164945666Y-62632190D01*
X164886142Y-62751238D01*
X164886142Y-63108380D01*
X164945666Y-63227428D01*
X165005190Y-63286952D01*
X165124238Y-63346476D01*
X165302809Y-63346476D01*
X164171857Y-63346476D02*
X164290904Y-63286952D01*
X164350428Y-63167904D01*
X164350428Y-62096476D01*
X163100428Y-63346476D02*
X163695666Y-63346476D01*
X163695666Y-62096476D01*
X162207571Y-63286952D02*
X162326619Y-63346476D01*
X162564714Y-63346476D01*
X162683761Y-63286952D01*
X162743285Y-63167904D01*
X162743285Y-62691714D01*
X162683761Y-62572666D01*
X162564714Y-62513142D01*
X162326619Y-62513142D01*
X162207571Y-62572666D01*
X162148047Y-62691714D01*
X162148047Y-62810761D01*
X162743285Y-62929809D01*
X161433761Y-63346476D02*
X161552809Y-63286952D01*
X161612333Y-63227428D01*
X161671857Y-63108380D01*
X161671857Y-62751238D01*
X161612333Y-62632190D01*
X161552809Y-62572666D01*
X161433761Y-62513142D01*
X161255190Y-62513142D01*
X161136142Y-62572666D01*
X161076619Y-62632190D01*
X161017095Y-62751238D01*
X161017095Y-63108380D01*
X161076619Y-63227428D01*
X161136142Y-63286952D01*
X161255190Y-63346476D01*
X161433761Y-63346476D01*
X160540904Y-62215523D02*
X160481380Y-62156000D01*
X160362333Y-62096476D01*
X160064714Y-62096476D01*
X159945666Y-62156000D01*
X159886142Y-62215523D01*
X159826619Y-62334571D01*
X159826619Y-62453619D01*
X159886142Y-62632190D01*
X160600428Y-63346476D01*
X159826619Y-63346476D01*
X158398047Y-63286952D02*
X158219476Y-63346476D01*
X157921857Y-63346476D01*
X157802809Y-63286952D01*
X157743285Y-63227428D01*
X157683761Y-63108380D01*
X157683761Y-62989333D01*
X157743285Y-62870285D01*
X157802809Y-62810761D01*
X157921857Y-62751238D01*
X158159952Y-62691714D01*
X158279000Y-62632190D01*
X158338523Y-62572666D01*
X158398047Y-62453619D01*
X158398047Y-62334571D01*
X158338523Y-62215523D01*
X158279000Y-62156000D01*
X158159952Y-62096476D01*
X157862333Y-62096476D01*
X157683761Y-62156000D01*
X156969476Y-63346476D02*
X157088523Y-63286952D01*
X157148047Y-63227428D01*
X157207571Y-63108380D01*
X157207571Y-62751238D01*
X157148047Y-62632190D01*
X157088523Y-62572666D01*
X156969476Y-62513142D01*
X156790904Y-62513142D01*
X156671857Y-62572666D01*
X156612333Y-62632190D01*
X156552809Y-62751238D01*
X156552809Y-63108380D01*
X156612333Y-63227428D01*
X156671857Y-63286952D01*
X156790904Y-63346476D01*
X156969476Y-63346476D01*
X156195666Y-62513142D02*
X155719476Y-62513142D01*
X156017095Y-63346476D02*
X156017095Y-62275047D01*
X155957571Y-62156000D01*
X155838523Y-62096476D01*
X155719476Y-62096476D01*
X155481380Y-62513142D02*
X155005190Y-62513142D01*
X155302809Y-62096476D02*
X155302809Y-63167904D01*
X155243285Y-63286952D01*
X155124238Y-63346476D01*
X155005190Y-63346476D01*
X154707571Y-62513142D02*
X154469476Y-63346476D01*
X154231380Y-62751238D01*
X153993285Y-63346476D01*
X153755190Y-62513142D01*
X152743285Y-63346476D02*
X152743285Y-62691714D01*
X152802809Y-62572666D01*
X152921857Y-62513142D01*
X153159952Y-62513142D01*
X153279000Y-62572666D01*
X152743285Y-63286952D02*
X152862333Y-63346476D01*
X153159952Y-63346476D01*
X153279000Y-63286952D01*
X153338523Y-63167904D01*
X153338523Y-63048857D01*
X153279000Y-62929809D01*
X153159952Y-62870285D01*
X152862333Y-62870285D01*
X152743285Y-62810761D01*
X152148047Y-63346476D02*
X152148047Y-62513142D01*
X152148047Y-62751238D02*
X152088523Y-62632190D01*
X152029000Y-62572666D01*
X151909952Y-62513142D01*
X151790904Y-62513142D01*
X150898047Y-63286952D02*
X151017095Y-63346476D01*
X151255190Y-63346476D01*
X151374238Y-63286952D01*
X151433761Y-63167904D01*
X151433761Y-62691714D01*
X151374238Y-62572666D01*
X151255190Y-62513142D01*
X151017095Y-62513142D01*
X150898047Y-62572666D01*
X150838523Y-62691714D01*
X150838523Y-62810761D01*
X151433761Y-62929809D01*
X149350428Y-63346476D02*
X149350428Y-62096476D01*
X149350428Y-62572666D02*
X149231380Y-62513142D01*
X148993285Y-62513142D01*
X148874238Y-62572666D01*
X148814714Y-62632190D01*
X148755190Y-62751238D01*
X148755190Y-63108380D01*
X148814714Y-63227428D01*
X148874238Y-63286952D01*
X148993285Y-63346476D01*
X149231380Y-63346476D01*
X149350428Y-63286952D01*
X148338523Y-62513142D02*
X148040904Y-63346476D01*
X147743285Y-62513142D02*
X148040904Y-63346476D01*
X148159952Y-63644095D01*
X148219476Y-63703619D01*
X148338523Y-63763142D01*
X146314714Y-63346476D02*
X146314714Y-62096476D01*
X145838523Y-62096476D01*
X145719476Y-62156000D01*
X145659952Y-62215523D01*
X145600428Y-62334571D01*
X145600428Y-62513142D01*
X145659952Y-62632190D01*
X145719476Y-62691714D01*
X145838523Y-62751238D01*
X146314714Y-62751238D01*
X144588523Y-63286952D02*
X144707571Y-63346476D01*
X144945666Y-63346476D01*
X145064714Y-63286952D01*
X145124238Y-63167904D01*
X145124238Y-62691714D01*
X145064714Y-62572666D01*
X144945666Y-62513142D01*
X144707571Y-62513142D01*
X144588523Y-62572666D01*
X144529000Y-62691714D01*
X144529000Y-62810761D01*
X145124238Y-62929809D01*
X144171857Y-62513142D02*
X143695666Y-62513142D01*
X143993285Y-62096476D02*
X143993285Y-63167904D01*
X143933761Y-63286952D01*
X143814714Y-63346476D01*
X143695666Y-63346476D01*
X142802809Y-63286952D02*
X142921857Y-63346476D01*
X143159952Y-63346476D01*
X143279000Y-63286952D01*
X143338523Y-63167904D01*
X143338523Y-62691714D01*
X143279000Y-62572666D01*
X143159952Y-62513142D01*
X142921857Y-62513142D01*
X142802809Y-62572666D01*
X142743285Y-62691714D01*
X142743285Y-62810761D01*
X143338523Y-62929809D01*
X142207571Y-63346476D02*
X142207571Y-62513142D01*
X142207571Y-62751238D02*
X142148047Y-62632190D01*
X142088523Y-62572666D01*
X141969476Y-62513142D01*
X141850428Y-62513142D01*
X140481380Y-62691714D02*
X140064714Y-62691714D01*
X139886142Y-63346476D02*
X140481380Y-63346476D01*
X140481380Y-62096476D01*
X139886142Y-62096476D01*
X138814714Y-63346476D02*
X138814714Y-62691714D01*
X138874238Y-62572666D01*
X138993285Y-62513142D01*
X139231380Y-62513142D01*
X139350428Y-62572666D01*
X138814714Y-63286952D02*
X138933761Y-63346476D01*
X139231380Y-63346476D01*
X139350428Y-63286952D01*
X139409952Y-63167904D01*
X139409952Y-63048857D01*
X139350428Y-62929809D01*
X139231380Y-62870285D01*
X138933761Y-62870285D01*
X138814714Y-62810761D01*
X138279000Y-63286952D02*
X138159952Y-63346476D01*
X137921857Y-63346476D01*
X137802809Y-63286952D01*
X137743285Y-63167904D01*
X137743285Y-63108380D01*
X137802809Y-62989333D01*
X137921857Y-62929809D01*
X138100428Y-62929809D01*
X138219476Y-62870285D01*
X138279000Y-62751238D01*
X138279000Y-62691714D01*
X138219476Y-62572666D01*
X138100428Y-62513142D01*
X137921857Y-62513142D01*
X137802809Y-62572666D01*
X137386142Y-62513142D02*
X136909952Y-62513142D01*
X137207571Y-62096476D02*
X137207571Y-63167904D01*
X137148047Y-63286952D01*
X137029000Y-63346476D01*
X136909952Y-63346476D01*
X136314714Y-63346476D02*
X136433761Y-63286952D01*
X136493285Y-63227428D01*
X136552809Y-63108380D01*
X136552809Y-62751238D01*
X136493285Y-62632190D01*
X136433761Y-62572666D01*
X136314714Y-62513142D01*
X136136142Y-62513142D01*
X136017095Y-62572666D01*
X135957571Y-62632190D01*
X135898047Y-62751238D01*
X135898047Y-63108380D01*
X135957571Y-63227428D01*
X136017095Y-63286952D01*
X136136142Y-63346476D01*
X136314714Y-63346476D01*
X135362333Y-62513142D02*
X135362333Y-63346476D01*
X135362333Y-62632190D02*
X135302809Y-62572666D01*
X135183761Y-62513142D01*
X135005190Y-62513142D01*
X134886142Y-62572666D01*
X134826619Y-62691714D01*
X134826619Y-63346476D01*
X169469476Y-64588142D02*
X169469476Y-65600047D01*
X169529000Y-65719095D01*
X169588523Y-65778619D01*
X169707571Y-65838142D01*
X169886142Y-65838142D01*
X170005190Y-65778619D01*
X169469476Y-65361952D02*
X169588523Y-65421476D01*
X169826619Y-65421476D01*
X169945666Y-65361952D01*
X170005190Y-65302428D01*
X170064714Y-65183380D01*
X170064714Y-64826238D01*
X170005190Y-64707190D01*
X169945666Y-64647666D01*
X169826619Y-64588142D01*
X169588523Y-64588142D01*
X169469476Y-64647666D01*
X168874238Y-65421476D02*
X168874238Y-64588142D01*
X168874238Y-64171476D02*
X168933761Y-64231000D01*
X168874238Y-64290523D01*
X168814714Y-64231000D01*
X168874238Y-64171476D01*
X168874238Y-64290523D01*
X168457571Y-64588142D02*
X167981380Y-64588142D01*
X168279000Y-64171476D02*
X168279000Y-65242904D01*
X168219476Y-65361952D01*
X168100428Y-65421476D01*
X167981380Y-65421476D01*
X167564714Y-65421476D02*
X167564714Y-64171476D01*
X167029000Y-65421476D02*
X167029000Y-64766714D01*
X167088523Y-64647666D01*
X167207571Y-64588142D01*
X167386142Y-64588142D01*
X167505190Y-64647666D01*
X167564714Y-64707190D01*
X165898047Y-64588142D02*
X165898047Y-65421476D01*
X166433761Y-64588142D02*
X166433761Y-65242904D01*
X166374238Y-65361952D01*
X166255190Y-65421476D01*
X166076619Y-65421476D01*
X165957571Y-65361952D01*
X165898047Y-65302428D01*
X165302809Y-65421476D02*
X165302809Y-64171476D01*
X165302809Y-64647666D02*
X165183761Y-64588142D01*
X164945666Y-64588142D01*
X164826619Y-64647666D01*
X164767095Y-64707190D01*
X164707571Y-64826238D01*
X164707571Y-65183380D01*
X164767095Y-65302428D01*
X164826619Y-65361952D01*
X164945666Y-65421476D01*
X165183761Y-65421476D01*
X165302809Y-65361952D01*
X164171857Y-65302428D02*
X164112333Y-65361952D01*
X164171857Y-65421476D01*
X164231380Y-65361952D01*
X164171857Y-65302428D01*
X164171857Y-65421476D01*
X163040904Y-65361952D02*
X163159952Y-65421476D01*
X163398047Y-65421476D01*
X163517095Y-65361952D01*
X163576619Y-65302428D01*
X163636142Y-65183380D01*
X163636142Y-64826238D01*
X163576619Y-64707190D01*
X163517095Y-64647666D01*
X163398047Y-64588142D01*
X163159952Y-64588142D01*
X163040904Y-64647666D01*
X162326619Y-65421476D02*
X162445666Y-65361952D01*
X162505190Y-65302428D01*
X162564714Y-65183380D01*
X162564714Y-64826238D01*
X162505190Y-64707190D01*
X162445666Y-64647666D01*
X162326619Y-64588142D01*
X162148047Y-64588142D01*
X162029000Y-64647666D01*
X161969476Y-64707190D01*
X161909952Y-64826238D01*
X161909952Y-65183380D01*
X161969476Y-65302428D01*
X162029000Y-65361952D01*
X162148047Y-65421476D01*
X162326619Y-65421476D01*
X161374238Y-65421476D02*
X161374238Y-64588142D01*
X161374238Y-64707190D02*
X161314714Y-64647666D01*
X161195666Y-64588142D01*
X161017095Y-64588142D01*
X160898047Y-64647666D01*
X160838523Y-64766714D01*
X160838523Y-65421476D01*
X160838523Y-64766714D02*
X160779000Y-64647666D01*
X160659952Y-64588142D01*
X160481380Y-64588142D01*
X160362333Y-64647666D01*
X160302809Y-64766714D01*
X160302809Y-65421476D01*
X158814714Y-64111952D02*
X159886142Y-65719095D01*
X157921857Y-65361952D02*
X158040904Y-65421476D01*
X158279000Y-65421476D01*
X158398047Y-65361952D01*
X158457571Y-65242904D01*
X158457571Y-64766714D01*
X158398047Y-64647666D01*
X158279000Y-64588142D01*
X158040904Y-64588142D01*
X157921857Y-64647666D01*
X157862333Y-64766714D01*
X157862333Y-64885761D01*
X158457571Y-65004809D01*
X157326619Y-64588142D02*
X157326619Y-65421476D01*
X157326619Y-64707190D02*
X157267095Y-64647666D01*
X157148047Y-64588142D01*
X156969476Y-64588142D01*
X156850428Y-64647666D01*
X156790904Y-64766714D01*
X156790904Y-65421476D01*
X155659952Y-64588142D02*
X155659952Y-65600047D01*
X155719476Y-65719095D01*
X155779000Y-65778619D01*
X155898047Y-65838142D01*
X156076619Y-65838142D01*
X156195666Y-65778619D01*
X155659952Y-65361952D02*
X155779000Y-65421476D01*
X156017095Y-65421476D01*
X156136142Y-65361952D01*
X156195666Y-65302428D01*
X156255190Y-65183380D01*
X156255190Y-64826238D01*
X156195666Y-64707190D01*
X156136142Y-64647666D01*
X156017095Y-64588142D01*
X155779000Y-64588142D01*
X155659952Y-64647666D01*
X155064714Y-65421476D02*
X155064714Y-64588142D01*
X155064714Y-64171476D02*
X155124238Y-64231000D01*
X155064714Y-64290523D01*
X155005190Y-64231000D01*
X155064714Y-64171476D01*
X155064714Y-64290523D01*
X154469476Y-64588142D02*
X154469476Y-65421476D01*
X154469476Y-64707190D02*
X154409952Y-64647666D01*
X154290904Y-64588142D01*
X154112333Y-64588142D01*
X153993285Y-64647666D01*
X153933761Y-64766714D01*
X153933761Y-65421476D01*
X152862333Y-65361952D02*
X152981380Y-65421476D01*
X153219476Y-65421476D01*
X153338523Y-65361952D01*
X153398047Y-65242904D01*
X153398047Y-64766714D01*
X153338523Y-64647666D01*
X153219476Y-64588142D01*
X152981380Y-64588142D01*
X152862333Y-64647666D01*
X152802809Y-64766714D01*
X152802809Y-64885761D01*
X153398047Y-65004809D01*
X151790904Y-65361952D02*
X151909952Y-65421476D01*
X152148047Y-65421476D01*
X152267095Y-65361952D01*
X152326619Y-65242904D01*
X152326619Y-64766714D01*
X152267095Y-64647666D01*
X152148047Y-64588142D01*
X151909952Y-64588142D01*
X151790904Y-64647666D01*
X151731380Y-64766714D01*
X151731380Y-64885761D01*
X152326619Y-65004809D01*
X151195666Y-65421476D02*
X151195666Y-64588142D01*
X151195666Y-64826238D02*
X151136142Y-64707190D01*
X151076619Y-64647666D01*
X150957571Y-64588142D01*
X150838523Y-64588142D01*
X150600428Y-64588142D02*
X150124238Y-64588142D01*
X150421857Y-64171476D02*
X150421857Y-65242904D01*
X150362333Y-65361952D01*
X150243285Y-65421476D01*
X150124238Y-65421476D01*
X149826619Y-64588142D02*
X149529000Y-65421476D01*
X149231380Y-64588142D02*
X149529000Y-65421476D01*
X149648047Y-65719095D01*
X149707571Y-65778619D01*
X149826619Y-65838142D01*
X148755190Y-64588142D02*
X148755190Y-65838142D01*
X148755190Y-64647666D02*
X148636142Y-64588142D01*
X148398047Y-64588142D01*
X148279000Y-64647666D01*
X148219476Y-64707190D01*
X148159952Y-64826238D01*
X148159952Y-65183380D01*
X148219476Y-65302428D01*
X148279000Y-65361952D01*
X148398047Y-65421476D01*
X148636142Y-65421476D01*
X148755190Y-65361952D01*
X147148047Y-65361952D02*
X147267095Y-65421476D01*
X147505190Y-65421476D01*
X147624238Y-65361952D01*
X147683761Y-65242904D01*
X147683761Y-64766714D01*
X147624238Y-64647666D01*
X147505190Y-64588142D01*
X147267095Y-64588142D01*
X147148047Y-64647666D01*
X147088523Y-64766714D01*
X147088523Y-64885761D01*
X147683761Y-65004809D01*
X145659952Y-64111952D02*
X146731380Y-65719095D01*
X144529000Y-65302428D02*
X144588523Y-65361952D01*
X144767095Y-65421476D01*
X144886142Y-65421476D01*
X145064714Y-65361952D01*
X145183761Y-65242904D01*
X145243285Y-65123857D01*
X145302809Y-64885761D01*
X145302809Y-64707190D01*
X145243285Y-64469095D01*
X145183761Y-64350047D01*
X145064714Y-64231000D01*
X144886142Y-64171476D01*
X144767095Y-64171476D01*
X144588523Y-64231000D01*
X144529000Y-64290523D01*
X143814714Y-65421476D02*
X143933761Y-65361952D01*
X143993285Y-65302428D01*
X144052809Y-65183380D01*
X144052809Y-64826238D01*
X143993285Y-64707190D01*
X143933761Y-64647666D01*
X143814714Y-64588142D01*
X143636142Y-64588142D01*
X143517095Y-64647666D01*
X143457571Y-64707190D01*
X143398047Y-64826238D01*
X143398047Y-65183380D01*
X143457571Y-65302428D01*
X143517095Y-65361952D01*
X143636142Y-65421476D01*
X143814714Y-65421476D01*
X142862333Y-64588142D02*
X142862333Y-65421476D01*
X142862333Y-64707190D02*
X142802809Y-64647666D01*
X142683761Y-64588142D01*
X142505190Y-64588142D01*
X142386142Y-64647666D01*
X142326619Y-64766714D01*
X142326619Y-65421476D01*
X141909952Y-64588142D02*
X141433761Y-64588142D01*
X141731380Y-64171476D02*
X141731380Y-65242904D01*
X141671857Y-65361952D01*
X141552809Y-65421476D01*
X141433761Y-65421476D01*
X141017095Y-65421476D02*
X141017095Y-64588142D01*
X141017095Y-64826238D02*
X140957571Y-64707190D01*
X140898047Y-64647666D01*
X140779000Y-64588142D01*
X140659952Y-64588142D01*
X140064714Y-65421476D02*
X140183761Y-65361952D01*
X140243285Y-65302428D01*
X140302809Y-65183380D01*
X140302809Y-64826238D01*
X140243285Y-64707190D01*
X140183761Y-64647666D01*
X140064714Y-64588142D01*
X139886142Y-64588142D01*
X139767095Y-64647666D01*
X139707571Y-64707190D01*
X139648047Y-64826238D01*
X139648047Y-65183380D01*
X139707571Y-65302428D01*
X139767095Y-65361952D01*
X139886142Y-65421476D01*
X140064714Y-65421476D01*
X138517095Y-65421476D02*
X139112333Y-65421476D01*
X139112333Y-64171476D01*
X137624238Y-65361952D02*
X137743285Y-65421476D01*
X137981380Y-65421476D01*
X138100428Y-65361952D01*
X138159952Y-65242904D01*
X138159952Y-64766714D01*
X138100428Y-64647666D01*
X137981380Y-64588142D01*
X137743285Y-64588142D01*
X137624238Y-64647666D01*
X137564714Y-64766714D01*
X137564714Y-64885761D01*
X138159952Y-65004809D01*
X136850428Y-65421476D02*
X136969476Y-65361952D01*
X137029000Y-65302428D01*
X137088523Y-65183380D01*
X137088523Y-64826238D01*
X137029000Y-64707190D01*
X136969476Y-64647666D01*
X136850428Y-64588142D01*
X136671857Y-64588142D01*
X136552809Y-64647666D01*
X136493285Y-64707190D01*
X136433761Y-64826238D01*
X136433761Y-65183380D01*
X136493285Y-65302428D01*
X136552809Y-65361952D01*
X136671857Y-65421476D01*
X136850428Y-65421476D01*
X135957571Y-64290523D02*
X135898047Y-64231000D01*
X135779000Y-64171476D01*
X135481380Y-64171476D01*
X135362333Y-64231000D01*
X135302809Y-64290523D01*
X135243285Y-64409571D01*
X135243285Y-64528619D01*
X135302809Y-64707190D01*
X136017095Y-65421476D01*
X135243285Y-65421476D01*
D10*
X152501523Y-47098000D02*
X152577714Y-47059904D01*
X152692000Y-47059904D01*
X152806285Y-47098000D01*
X152882476Y-47174190D01*
X152920571Y-47250380D01*
X152958666Y-47402761D01*
X152958666Y-47517047D01*
X152920571Y-47669428D01*
X152882476Y-47745619D01*
X152806285Y-47821809D01*
X152692000Y-47859904D01*
X152615809Y-47859904D01*
X152501523Y-47821809D01*
X152463428Y-47783714D01*
X152463428Y-47517047D01*
X152615809Y-47517047D01*
X152120571Y-47859904D02*
X152120571Y-47059904D01*
X151663428Y-47859904D01*
X151663428Y-47059904D01*
X151282476Y-47859904D02*
X151282476Y-47059904D01*
X151092000Y-47059904D01*
X150977714Y-47098000D01*
X150901523Y-47174190D01*
X150863428Y-47250380D01*
X150825333Y-47402761D01*
X150825333Y-47517047D01*
X150863428Y-47669428D01*
X150901523Y-47745619D01*
X150977714Y-47821809D01*
X151092000Y-47859904D01*
X151282476Y-47859904D01*
X158095809Y-47859904D02*
X158095809Y-47059904D01*
X157791047Y-47059904D01*
X157714857Y-47098000D01*
X157676761Y-47136095D01*
X157638666Y-47212285D01*
X157638666Y-47326571D01*
X157676761Y-47402761D01*
X157714857Y-47440857D01*
X157791047Y-47478952D01*
X158095809Y-47478952D01*
X157372000Y-47059904D02*
X157181523Y-47859904D01*
X157029142Y-47288476D01*
X156876761Y-47859904D01*
X156686285Y-47059904D01*
X156381523Y-47859904D02*
X156381523Y-47059904D01*
X156114857Y-47631333D01*
X155848190Y-47059904D01*
X155848190Y-47859904D01*
X155460571Y-47555142D02*
X154851047Y-47555142D01*
X155155809Y-47859904D02*
X155155809Y-47250380D01*
X154089142Y-47059904D02*
X154470095Y-47059904D01*
X154508190Y-47440857D01*
X154470095Y-47402761D01*
X154393904Y-47364666D01*
X154203428Y-47364666D01*
X154127238Y-47402761D01*
X154089142Y-47440857D01*
X154051047Y-47517047D01*
X154051047Y-47707523D01*
X154089142Y-47783714D01*
X154127238Y-47821809D01*
X154203428Y-47859904D01*
X154393904Y-47859904D01*
X154470095Y-47821809D01*
X154508190Y-47783714D01*
X153822476Y-47059904D02*
X153555809Y-47859904D01*
X153289142Y-47059904D01*
M02*
